<?xml version="1.0" encoding="UTF-8" standalone="no"?>
<svg width="20px" height="20px" viewBox="0 0 20 20" version="1.1" xmlns="http://www.w3.org/2000/svg" xmlns:xlink="http://www.w3.org/1999/xlink">
    <!-- Generator: Sketch 3.8.3 (29802) - http://www.bohemiancoding.com/sketch -->
    <title>Shape Copy 2</title>
    <desc>Created with Sketch.</desc>
    <defs></defs>
    <g id="Attach-Vehicle-Documentation-Flow" stroke="none" stroke-width="1" fill="none" fill-rule="evenodd">
        <g id="iPhone-5-Form-Lease-Attach-1-of-3" transform="translate(-28.000000, -162.000000)" fill="#00517A">
            <path d="M28,172 C28,169.234242 28.9751515,166.876061 30.9257576,164.925758 C32.8763636,162.975455 35.2342424,162 38,162 C40.7657576,162 43.1239394,162.975152 45.0742424,164.925758 C47.0236364,166.876061 48,169.234242 48,172 C48,174.765758 47.0236364,177.123939 45.0742424,179.074242 C43.1239394,181.024848 40.7657576,182 38,182 C35.2342424,182 32.8760606,181.024848 30.9257576,179.074242 C28.9754545,177.123636 28,174.765758 28,172 L28,172 Z M29.3512121,172 C29.3512121,174.396364 30.1945455,176.439091 31.8827273,178.128485 C33.5709091,179.817879 35.6112121,180.662121 38.0066667,180.662121 C40.4006061,180.662121 42.4448485,179.817576 44.1360606,178.128485 C45.8284848,176.439394 46.6754545,174.396667 46.6754545,172 C46.6754545,169.603333 45.8284848,167.558485 44.1360606,165.864848 C42.4448485,164.171212 40.4009091,163.324242 38.0066667,163.324242 C35.6112121,163.324242 33.5709091,164.171212 31.8827273,165.864848 C30.1948485,167.558485 29.3512121,169.603636 29.3512121,172 L29.3512121,172 Z" id="Shape-Copy-2"></path>
        </g>
    </g>
</svg>