<?xml version="1.0" encoding="UTF-8" standalone="no"?>
<svg width="20px" height="20px" viewBox="0 0 20 20" version="1.1" xmlns="http://www.w3.org/2000/svg" xmlns:xlink="http://www.w3.org/1999/xlink">
    <!-- Generator: Sketch 3.8.3 (29802) - http://www.bohemiancoding.com/sketch -->
    <title>Radio Button Selected</title>
    <desc>Created with Sketch.</desc>
    <defs></defs>
    <g id="Attach-Vehicle-Documentation-Flow" stroke="none" stroke-width="1" fill="none" fill-rule="evenodd">
        <g id="iPhone-5-Form-Lease-Attach-1-of-3" transform="translate(-27.000000, -202.000000)" fill="#00517A">
            <g id="Radio-Button-Selected" transform="translate(27.000000, 202.000000)">
                <path d="M0,10 C0,7.23424242 0.975151515,4.87606061 2.92545455,2.92575758 C4.87575758,0.975454545 7.23424242,0 10,0 C12.7657576,0 15.1239394,0.975151515 17.0745455,2.92575758 C19.0236364,4.87606061 20,7.23424242 20,10 C20,12.7657576 19.0236364,15.1239394 17.0745455,17.0742424 C15.1239394,19.0248485 12.7657576,20 10,20 C7.23424242,20 4.87606061,19.0248485 2.92545455,17.0742424 C0.974848485,15.1236364 0,12.7657576 0,10 L0,10 Z M1.35121212,10 C1.35121212,12.3963636 2.19484848,14.4390909 3.88272727,16.1284848 C5.57060606,17.8178788 7.61151515,18.6621212 10.0066667,18.6621212 C12.4006061,18.6621212 14.4448485,17.8175758 16.1363636,16.1284848 C17.8287879,14.4393939 18.6757576,12.3966667 18.6757576,10 C18.6757576,7.60333333 17.8287879,5.55848485 16.1363636,3.86484848 C14.4448485,2.17121212 12.4009091,1.32424242 10.0066667,1.32424242 C7.61151515,1.32424242 5.57060606,2.17121212 3.88272727,3.86484848 C2.19484848,5.55848485 1.35121212,7.60363636 1.35121212,10 L1.35121212,10 Z" id="Shape"></path>
                <path d="M4,9.91545455 C4,8.28606061 4.57636364,6.8930303 5.72757576,5.73545455 C6.87939394,4.57909091 8.27030303,4 9.9,4 C11.5306061,4 12.9245455,4.57878788 14.0812121,5.73545455 C15.2387879,6.8930303 15.8175758,8.28606061 15.8175758,9.91545455 C15.8175758,11.5472727 15.2387879,12.9369697 14.0812121,14.0887879 C12.9248485,15.239697 11.5306061,15.8151515 9.9,15.8151515 C8.27030303,15.8151515 6.87939394,15.239697 5.72757576,14.0887879 C4.57636364,12.9369697 4,11.5472727 4,9.91545455 L4,9.91545455 Z" id="Shape"></path>
            </g>
        </g>
    </g>
</svg>